{
	"asset": {
		"generator": "Khronos glTF Blender I/O v1.2.75",
		"version": "2.0"
	},
	"scene": 0,
	"scenes": [
		{
			"name": "Scene",
			"nodes": [0, 1, 2, 3]
		}
	],
	"nodes": [
		{
			"name": "Light",
			"rotation": [
				0.16907575726509094,
				0.7558803558349609,
				-0.27217137813568115,
				0.570947527885437
			],
			"translation": [4.076245307922363, 5.903861999511719, -1.0054539442062378]
		},
		{
			"name": "Camera",
			"rotation": [
				0.483536034822464,
				0.33687159419059753,
				-0.20870360732078552,
				0.7804827094078064
			],
			"translation": [7.358891487121582, 4.958309173583984, 6.925790786743164]
		},
		{
			"mesh": 0,
			"name": "Terrain",
			"scale": [1, -0.05154081806540489, 1],
			"translation": [0, 0, -0.004802762996405363]
		},
		{
			"mesh": 1,
			"name": "Border",
			"rotation": [0, -0.7071067690849304, 0, 0.7071067690849304],
			"scale": [0.5, 0.06000000983476639, 0.014999999664723873],
			"translation": [-0.8809999823570251, 0, -0.004802762996405363]
		}
	],
	"materials": [
		{
			"doubleSided": true,
			"emissiveFactor": [0, 0, 0],
			"name": "Material.012",
			"pbrMetallicRoughness": {
				"baseColorFactor": [
					0.00012129710376029834,
					0.0003063931071665138,
					0.0352083258330822,
					1
				],
				"metallicFactor": 0,
				"roughnessFactor": 0.5
			}
		}
	],
	"meshes": [
		{
			"name": "Cylinder",
			"primitives": [
				{
					"attributes": {
						"POSITION": 0,
						"NORMAL": 1,
						"TEXCOORD_0": 2
					},
					"indices": 3
				}
			]
		},
		{
			"name": "Cube.001",
			"primitives": [
				{
					"attributes": {
						"POSITION": 4,
						"NORMAL": 5,
						"TEXCOORD_0": 6
					},
					"indices": 7,
					"material": 0
				}
			]
		}
	],
	"accessors": [
		{
			"bufferView": 0,
			"componentType": 5126,
			"count": 36,
			"max": [0.866025447845459, 1, 1],
			"min": [-0.866025447845459, -1, -1],
			"type": "VEC3"
		},
		{
			"bufferView": 1,
			"componentType": 5126,
			"count": 36,
			"type": "VEC3"
		},
		{
			"bufferView": 2,
			"componentType": 5126,
			"count": 36,
			"type": "VEC2"
		},
		{
			"bufferView": 3,
			"componentType": 5123,
			"count": 60,
			"type": "SCALAR"
		},
		{
			"bufferView": 4,
			"componentType": 5126,
			"count": 161,
			"max": [2.051917552947998, 1, 1],
			"min": [-2.051917791366577, -1, -118.4666748046875],
			"type": "VEC3"
		},
		{
			"bufferView": 5,
			"componentType": 5126,
			"count": 161,
			"type": "VEC3"
		},
		{
			"bufferView": 6,
			"componentType": 5126,
			"count": 161,
			"type": "VEC2"
		},
		{
			"bufferView": 7,
			"componentType": 5123,
			"count": 282,
			"type": "SCALAR"
		}
	],
	"bufferViews": [
		{
			"buffer": 0,
			"byteLength": 432,
			"byteOffset": 0
		},
		{
			"buffer": 0,
			"byteLength": 432,
			"byteOffset": 432
		},
		{
			"buffer": 0,
			"byteLength": 288,
			"byteOffset": 864
		},
		{
			"buffer": 0,
			"byteLength": 120,
			"byteOffset": 1152
		},
		{
			"buffer": 0,
			"byteLength": 1932,
			"byteOffset": 1272
		},
		{
			"buffer": 0,
			"byteLength": 1932,
			"byteOffset": 3204
		},
		{
			"buffer": 0,
			"byteLength": 1288,
			"byteOffset": 5136
		},
		{
			"buffer": 0,
			"byteLength": 564,
			"byteOffset": 6424
		}
	],
	"buffers": [
		{
			"byteLength": 6988,
			"uri": "data:application/octet-stream;base64,"
		}
	]
}
